<?xml version="1.0" encoding="UTF-8"?>
<svg id="Capa_2" data-name="Capa 2" xmlns="http://www.w3.org/2000/svg" viewBox="0 0 259 177.84">
  <defs>
    <style>
      .cls-1 {
        fill: #fff;
      }

      .cls-2 {
        isolation: isolate;
      }
    </style>
  </defs>
  <g id="Forma_1" data-name="Forma 1" class="cls-2">
    <g>
      <circle class="cls-1" cx="69.87" cy="6.16" r="5.65"/>
      <path class="cls-1" d="m69.87,12.31c-3.39,0-6.16-2.76-6.16-6.15s2.76-6.16,6.16-6.16,6.15,2.76,6.15,6.16-2.76,6.15-6.15,6.15Zm0-11.3c-2.84,0-5.15,2.31-5.15,5.15s2.31,5.15,5.15,5.15,5.15-2.31,5.15-5.15-2.31-5.15-5.15-5.15Z"/>
    </g>
    <g>
      <circle class="cls-1" cx="40.65" cy="18.32" r="3.89"/>
      <path class="cls-1" d="m40.65,22.72c-2.43,0-4.4-1.97-4.4-4.4s1.97-4.4,4.4-4.4,4.4,1.97,4.4,4.4-1.97,4.4-4.4,4.4Zm0-7.79c-1.87,0-3.39,1.52-3.39,3.39s1.52,3.39,3.39,3.39,3.39-1.52,3.39-3.39-1.52-3.39-3.39-3.39Z"/>
    </g>
    <g>
      <circle class="cls-1" cx="127.96" cy="32.47" r="2.47"/>
      <path class="cls-1" d="m127.96,35.45c-1.64,0-2.98-1.33-2.98-2.98s1.33-2.98,2.98-2.98,2.98,1.34,2.98,2.98-1.34,2.98-2.98,2.98Zm0-4.94c-1.08,0-1.97.88-1.97,1.97s.88,1.97,1.97,1.97,1.97-.88,1.97-1.97-.88-1.97-1.97-1.97Z"/>
    </g>
    <g>
      <circle class="cls-1" cx="60.59" cy="135.63" r="3.89"/>
      <path class="cls-1" d="m60.59,140.03c-2.43,0-4.4-1.97-4.4-4.4s1.97-4.4,4.4-4.4,4.4,1.97,4.4,4.4-1.97,4.4-4.4,4.4Zm0-7.79c-1.87,0-3.39,1.52-3.39,3.39s1.52,3.39,3.39,3.39,3.39-1.52,3.39-3.39-1.52-3.39-3.39-3.39Z"/>
    </g>
    <g>
      <circle class="cls-1" cx="29.97" cy="100.42" r="5.57"/>
      <path class="cls-1" d="m29.97,106.49c-3.35,0-6.07-2.72-6.07-6.07s2.72-6.07,6.07-6.07,6.07,2.72,6.07,6.07-2.72,6.07-6.07,6.07Zm0-11.14c-2.79,0-5.06,2.27-5.06,5.06s2.27,5.06,5.06,5.06,5.06-2.27,5.06-5.06-2.27-5.06-5.06-5.06Z"/>
    </g>
    <g>
      <circle class="cls-1" cx="9.83" cy="59.22" r="5.86"/>
      <path class="cls-1" d="m9.83,65.59c-3.51,0-6.37-2.86-6.37-6.37s2.86-6.37,6.37-6.37,6.37,2.86,6.37,6.37-2.86,6.37-6.37,6.37Zm0-11.72c-2.95,0-5.36,2.4-5.36,5.36s2.4,5.36,5.36,5.36,5.36-2.4,5.36-5.36-2.4-5.36-5.36-5.36Z"/>
    </g>
    <g>
      <circle class="cls-1" cx="13.99" cy="86.34" r="3.89"/>
      <path class="cls-1" d="m13.99,90.74c-2.43,0-4.4-1.97-4.4-4.4s1.97-4.4,4.4-4.4,4.4,1.97,4.4,4.4-1.97,4.4-4.4,4.4Zm0-7.79c-1.87,0-3.39,1.52-3.39,3.39s1.52,3.39,3.39,3.39,3.39-1.52,3.39-3.39-1.52-3.39-3.39-3.39Z"/>
    </g>
    <g>
      <circle class="cls-1" cx="25.07" cy="144.94" r="3.89"/>
      <path class="cls-1" d="m25.07,149.34c-2.43,0-4.4-1.97-4.4-4.4s1.97-4.4,4.4-4.4,4.4,1.97,4.4,4.4-1.97,4.4-4.4,4.4Zm0-7.79c-1.87,0-3.39,1.52-3.39,3.39s1.52,3.39,3.39,3.39,3.39-1.52,3.39-3.39-1.52-3.39-3.39-3.39Z"/>
    </g>
    <g>
      <circle class="cls-1" cx="115.02" cy="42.7" r="7.59"/>
      <path class="cls-1" d="m115.02,50.8c-4.46,0-8.09-3.63-8.09-8.09s3.63-8.09,8.09-8.09,8.09,3.63,8.09,8.09-3.63,8.09-8.09,8.09Zm0-15.18c-3.91,0-7.08,3.18-7.08,7.08s3.18,7.08,7.08,7.08,7.08-3.18,7.08-7.08-3.18-7.08-7.08-7.08Z"/>
    </g>
    <g>
      <circle class="cls-1" cx="4.63" cy="92.87" r="4.13"/>
      <path class="cls-1" d="m4.63,97.5c-2.56,0-4.63-2.08-4.63-4.63s2.08-4.63,4.63-4.63,4.63,2.08,4.63,4.63-2.08,4.63-4.63,4.63Zm0-8.26c-2,0-3.63,1.63-3.63,3.63s1.63,3.63,3.63,3.63,3.63-1.63,3.63-3.63-1.63-3.63-3.63-3.63Z"/>
    </g>
    <g>
      <circle class="cls-1" cx="25.07" cy="33.89" r="3.89"/>
      <path class="cls-1" d="m25.07,38.29c-2.43,0-4.4-1.97-4.4-4.4s1.97-4.4,4.4-4.4,4.4,1.97,4.4,4.4-1.97,4.4-4.4,4.4Zm0-7.79c-1.87,0-3.39,1.52-3.39,3.39s1.52,3.39,3.39,3.39,3.39-1.52,3.39-3.39-1.52-3.39-3.39-3.39Z"/>
    </g>
    <g>
      <circle class="cls-1" cx="10.71" cy="122.48" r="4.9"/>
      <path class="cls-1" d="m10.71,127.89c-2.98,0-5.4-2.42-5.4-5.4s2.42-5.4,5.4-5.4,5.4,2.42,5.4,5.4-2.42,5.4-5.4,5.4Zm0-9.8c-2.42,0-4.4,1.97-4.4,4.4s1.97,4.4,4.4,4.4,4.4-1.97,4.4-4.4-1.97-4.4-4.4-4.4Z"/>
    </g>
    <g>
      <circle class="cls-1" cx="25.07" cy="126.33" r="4.9"/>
      <path class="cls-1" d="m25.07,131.74c-2.98,0-5.4-2.42-5.4-5.4s2.42-5.4,5.4-5.4,5.4,2.42,5.4,5.4-2.42,5.4-5.4,5.4Zm0-9.8c-2.42,0-4.4,1.97-4.4,4.4s1.97,4.4,4.4,4.4,4.4-1.97,4.4-4.4-1.97-4.4-4.4-4.4Z"/>
    </g>
    <g>
      <circle class="cls-1" cx="53.34" cy="165.3" r="4.9"/>
      <path class="cls-1" d="m53.34,170.7c-2.98,0-5.4-2.42-5.4-5.4s2.42-5.4,5.4-5.4,5.4,2.42,5.4,5.4-2.42,5.4-5.4,5.4Zm0-9.8c-2.42,0-4.4,1.97-4.4,4.4s1.97,4.4,4.4,4.4,4.4-1.97,4.4-4.4-1.97-4.4-4.4-4.4Z"/>
    </g>
    <g>
      <circle class="cls-1" cx="71.57" cy="156.06" r="4.9"/>
      <path class="cls-1" d="m71.57,161.46c-2.98,0-5.4-2.42-5.4-5.4s2.42-5.4,5.4-5.4,5.4,2.42,5.4,5.4-2.42,5.4-5.4,5.4Zm0-9.8c-2.42,0-4.4,1.97-4.4,4.4s1.97,4.4,4.4,4.4,4.4-1.97,4.4-4.4-1.97-4.4-4.4-4.4Z"/>
    </g>
    <g>
      <circle class="cls-1" cx="85.11" cy="173.44" r="3.89"/>
      <path class="cls-1" d="m85.11,177.84c-2.43,0-4.4-1.97-4.4-4.4s1.97-4.4,4.4-4.4,4.4,1.97,4.4,4.4-1.97,4.4-4.4,4.4Zm0-7.79c-1.87,0-3.39,1.52-3.39,3.39s1.52,3.39,3.39,3.39,3.39-1.52,3.39-3.39-1.52-3.39-3.39-3.39Z"/>
    </g>
    <g>
      <circle class="cls-1" cx="97.53" cy="4.4" r="3.89"/>
      <path class="cls-1" d="m97.54,8.8c-2.43,0-4.4-1.97-4.4-4.4s1.97-4.4,4.4-4.4,4.4,1.97,4.4,4.4-1.97,4.4-4.4,4.4Zm0-7.79c-1.87,0-3.39,1.52-3.39,3.39s1.52,3.39,3.39,3.39,3.39-1.52,3.39-3.39-1.52-3.39-3.39-3.39Z"/>
    </g>
    <g>
      <circle class="cls-1" cx="131.53" cy="14.43" r="5.86"/>
      <path class="cls-1" d="m131.53,20.8c-3.51,0-6.37-2.86-6.37-6.37s2.86-6.37,6.37-6.37,6.37,2.86,6.37,6.37-2.86,6.37-6.37,6.37Zm0-11.72c-2.95,0-5.36,2.4-5.36,5.36s2.4,5.36,5.36,5.36,5.36-2.4,5.36-5.36-2.4-5.36-5.36-5.36Z"/>
    </g>
    <g>
      <circle class="cls-1" cx="81.22" cy="20.29" r="6.73"/>
      <path class="cls-1" d="m81.22,27.52c-3.99,0-7.23-3.24-7.23-7.23s3.24-7.23,7.23-7.23,7.23,3.24,7.23,7.23-3.24,7.23-7.23,7.23Zm0-13.45c-3.43,0-6.22,2.79-6.22,6.22s2.79,6.22,6.22,6.22,6.22-2.79,6.22-6.22-2.79-6.22-6.22-6.22Z"/>
    </g>
    <g>
      <circle class="cls-1" cx="40.34" cy="129.42" r="2.47"/>
      <path class="cls-1" d="m40.34,132.4c-1.64,0-2.98-1.33-2.98-2.98s1.33-2.98,2.98-2.98,2.98,1.33,2.98,2.98-1.33,2.98-2.98,2.98Zm0-4.94c-1.08,0-1.97.88-1.97,1.97s.88,1.97,1.97,1.97,1.97-.88,1.97-1.97-.88-1.97-1.97-1.97Z"/>
    </g>
    <g>
      <circle class="cls-1" cx="16.46" cy="113.8" r="2.47"/>
      <path class="cls-1" d="m16.46,116.78c-1.64,0-2.98-1.33-2.98-2.98s1.33-2.98,2.98-2.98,2.98,1.33,2.98,2.98-1.33,2.98-2.98,2.98Zm0-4.94c-1.08,0-1.97.88-1.97,1.97s.88,1.97,1.97,1.97,1.97-.88,1.97-1.97-.88-1.97-1.97-1.97Z"/>
    </g>
    <g>
      <circle class="cls-1" cx="33.7" cy="136.84" r="2.47"/>
      <path class="cls-1" d="m33.7,139.81c-1.64,0-2.98-1.34-2.98-2.98s1.33-2.98,2.98-2.98,2.98,1.33,2.98,2.98-1.34,2.98-2.98,2.98Zm0-4.94c-1.08,0-1.97.88-1.97,1.97s.88,1.97,1.97,1.97,1.97-.88,1.97-1.97-.88-1.97-1.97-1.97Z"/>
    </g>
    <g>
      <circle class="cls-1" cx="67.49" cy="50.03" r="8.95"/>
      <path class="cls-1" d="m67.49,59.49c-5.21,0-9.46-4.24-9.46-9.46s4.24-9.46,9.46-9.46,9.46,4.24,9.46,9.46-4.24,9.46-9.46,9.46Zm0-17.9c-4.66,0-8.45,3.79-8.45,8.45s3.79,8.45,8.45,8.45,8.45-3.79,8.45-8.45-3.79-8.45-8.45-8.45Z"/>
    </g>
    <g>
      <circle class="cls-1" cx="22.82" cy="77.65" r="3.89"/>
      <path class="cls-1" d="m22.82,82.05c-2.43,0-4.4-1.97-4.4-4.4s1.97-4.4,4.4-4.4,4.4,1.97,4.4,4.4-1.97,4.4-4.4,4.4Zm0-7.79c-1.87,0-3.39,1.52-3.39,3.39s1.52,3.39,3.39,3.39,3.39-1.52,3.39-3.39-1.52-3.39-3.39-3.39Z"/>
    </g>
    <g>
      <circle class="cls-1" cx="92.78" cy="157.67" r="5.14"/>
      <path class="cls-1" d="m92.78,163.31c-3.11,0-5.64-2.53-5.64-5.64s2.53-5.64,5.64-5.64,5.64,2.53,5.64,5.64-2.53,5.64-5.64,5.64Zm0-10.27c-2.56,0-4.63,2.08-4.63,4.63s2.08,4.63,4.63,4.63,4.63-2.08,4.63-4.63-2.08-4.63-4.63-4.63Z"/>
    </g>
    <g>
      <circle class="cls-1" cx="53.34" cy="146.29" r="6.48"/>
      <path class="cls-1" d="m53.34,153.27c-3.85,0-6.98-3.13-6.98-6.98s3.13-6.98,6.98-6.98,6.98,3.13,6.98,6.98-3.13,6.98-6.98,6.98Zm0-12.95c-3.29,0-5.97,2.68-5.97,5.97s2.68,5.97,5.97,5.97,5.97-2.68,5.97-5.97-2.68-5.97-5.97-5.97Z"/>
    </g>
    <g>
      <circle class="cls-1" cx="62.55" cy="111.3" r="8.03"/>
      <path class="cls-1" d="m62.55,119.84c-4.71,0-8.54-3.83-8.54-8.53s3.83-8.54,8.54-8.54,8.53,3.83,8.53,8.54-3.83,8.53-8.53,8.53Zm0-16.06c-4.15,0-7.53,3.38-7.53,7.53s3.38,7.53,7.53,7.53,7.53-3.38,7.53-7.53-3.38-7.53-7.53-7.53Z"/>
    </g>
    <g>
      <circle class="cls-1" cx="39.19" cy="81.54" r="6.48"/>
      <path class="cls-1" d="m39.19,88.52c-3.85,0-6.98-3.13-6.98-6.98s3.13-6.98,6.98-6.98,6.98,3.13,6.98,6.98-3.13,6.98-6.98,6.98Zm0-12.95c-3.29,0-5.97,2.68-5.97,5.97s2.68,5.97,5.97,5.97,5.97-2.68,5.97-5.97-2.68-5.97-5.97-5.97Z"/>
    </g>
    <g>
      <circle class="cls-1" cx="103.8" cy="120.07" r="6.27"/>
      <path class="cls-1" d="m103.8,126.84c-3.73,0-6.77-3.04-6.77-6.77s3.04-6.77,6.77-6.77,6.77,3.04,6.77,6.77-3.04,6.77-6.77,6.77Zm0-12.53c-3.18,0-5.76,2.58-5.76,5.76s2.58,5.76,5.76,5.76,5.76-2.58,5.76-5.76-2.58-5.76-5.76-5.76Z"/>
    </g>
    <g>
      <circle class="cls-1" cx="146.21" cy="149.19" r="5.83"/>
      <path class="cls-1" d="m146.21,155.52c-3.49,0-6.33-2.84-6.33-6.33s2.84-6.33,6.33-6.33,6.33,2.84,6.33,6.33-2.84,6.33-6.33,6.33Zm0-11.66c-2.94,0-5.33,2.39-5.33,5.33s2.39,5.33,5.33,5.33,5.33-2.39,5.33-5.33-2.39-5.33-5.33-5.33Z"/>
    </g>
    <g>
      <circle class="cls-1" cx="155.05" cy="36.35" r="6.35"/>
      <path class="cls-1" d="m155.05,43.21c-3.78,0-6.86-3.08-6.86-6.86s3.08-6.86,6.86-6.86,6.86,3.08,6.86,6.86-3.08,6.86-6.86,6.86Zm0-12.71c-3.22,0-5.85,2.62-5.85,5.85s2.62,5.85,5.85,5.85,5.85-2.62,5.85-5.85-2.62-5.85-5.85-5.85Z"/>
    </g>
    <g>
      <circle class="cls-1" cx="164.98" cy="129.56" r="4.9"/>
      <path class="cls-1" d="m164.98,134.96c-2.98,0-5.4-2.42-5.4-5.4s2.42-5.4,5.4-5.4,5.4,2.42,5.4,5.4-2.42,5.4-5.4,5.4Zm0-9.8c-2.42,0-4.4,1.97-4.4,4.4s1.97,4.4,4.4,4.4,4.4-1.97,4.4-4.4-1.97-4.4-4.4-4.4Z"/>
    </g>
    <g>
      <circle class="cls-1" cx="125.67" cy="163.68" r="4.9"/>
      <path class="cls-1" d="m125.67,169.09c-2.98,0-5.4-2.42-5.4-5.4s2.42-5.4,5.4-5.4,5.4,2.42,5.4,5.4-2.42,5.4-5.4,5.4Zm0-9.8c-2.42,0-4.4,1.97-4.4,4.4s1.97,4.4,4.4,4.4,4.4-1.97,4.4-4.4-1.97-4.4-4.4-4.4Z"/>
    </g>
    <g>
      <circle class="cls-1" cx="106.27" cy="163.68" r="2.47"/>
      <path class="cls-1" d="m106.27,166.66c-1.64,0-2.98-1.34-2.98-2.98s1.33-2.98,2.98-2.98,2.98,1.33,2.98,2.98-1.33,2.98-2.98,2.98Zm0-4.94c-1.08,0-1.97.88-1.97,1.97s.88,1.97,1.97,1.97,1.97-.88,1.97-1.97-.88-1.97-1.97-1.97Z"/>
    </g>
    <g>
      <circle class="cls-1" cx="31.23" cy="116.48" r="2.47"/>
      <path class="cls-1" d="m31.23,119.45c-1.64,0-2.98-1.33-2.98-2.98s1.33-2.98,2.98-2.98,2.98,1.34,2.98,2.98-1.33,2.98-2.98,2.98Zm0-4.94c-1.08,0-1.97.88-1.97,1.97s.88,1.97,1.97,1.97,1.97-.88,1.97-1.97-.88-1.97-1.97-1.97Z"/>
    </g>
    <g>
      <circle class="cls-1" cx="146.2" cy="51.03" r="2.47"/>
      <path class="cls-1" d="m146.2,54c-1.64,0-2.98-1.33-2.98-2.98s1.34-2.98,2.98-2.98,2.98,1.34,2.98,2.98-1.33,2.98-2.98,2.98Zm0-4.94c-1.09,0-1.97.88-1.97,1.97s.88,1.97,1.97,1.97,1.97-.88,1.97-1.97-.88-1.97-1.97-1.97Z"/>
    </g>
    <g>
      <circle class="cls-1" cx="46.98" cy="154.58" r="2.47"/>
      <path class="cls-1" d="m46.98,157.56c-1.64,0-2.98-1.33-2.98-2.98s1.33-2.98,2.98-2.98,2.98,1.33,2.98,2.98-1.33,2.98-2.98,2.98Zm0-4.94c-1.08,0-1.97.88-1.97,1.97s.88,1.97,1.97,1.97,1.97-.88,1.97-1.97-.88-1.97-1.97-1.97Z"/>
    </g>
    <g>
      <circle class="cls-1" cx="117.46" cy="150.02" r="2.47"/>
      <path class="cls-1" d="m117.46,153c-1.64,0-2.98-1.34-2.98-2.98s1.33-2.98,2.98-2.98,2.98,1.33,2.98,2.98-1.33,2.98-2.98,2.98Zm0-4.94c-1.08,0-1.97.88-1.97,1.97s.88,1.97,1.97,1.97,1.97-.88,1.97-1.97-.88-1.97-1.97-1.97Z"/>
    </g>
    <g>
      <line class="cls-1" x1="67.49" y1="50.03" x2="115.02" y2="42.7"/>
      <rect class="cls-1" x="67.21" y="44.86" width="48.09" height="3.02" transform="translate(-6 14.44) rotate(-8.76)"/>
    </g>
    <g>
      <circle class="cls-1" cx="107.6" cy="22.22" r="5.14"/>
      <path class="cls-1" d="m107.59,27.86c-3.11,0-5.64-2.53-5.64-5.64s2.53-5.64,5.64-5.64,5.64,2.53,5.64,5.64-2.53,5.64-5.64,5.64Zm0-10.27c-2.56,0-4.63,2.08-4.63,4.63s2.08,4.63,4.63,4.63,4.63-2.08,4.63-4.63-2.08-4.63-4.63-4.63Z"/>
    </g>
    <g>
      <circle class="cls-1" cx="87.35" cy="137.15" r="5.14"/>
      <path class="cls-1" d="m87.35,142.79c-3.11,0-5.64-2.53-5.64-5.64s2.53-5.64,5.64-5.64,5.64,2.53,5.64,5.64-2.53,5.64-5.64,5.64Zm0-10.27c-2.56,0-4.63,2.08-4.63,4.63s2.08,4.63,4.63,4.63,4.63-2.08,4.63-4.63-2.08-4.63-4.63-4.63Z"/>
    </g>
    <g>
      <line class="cls-1" x1="39.19" y1="81.54" x2="62.55" y2="111.3"/>
      <rect class="cls-1" x="49.36" y="77.51" width="3.02" height="37.83" transform="translate(-48.68 51.98) rotate(-38.13)"/>
    </g>
    <g>
      <line class="cls-1" x1="39.19" y1="81.54" x2="67.49" y2="50.03"/>
      <rect class="cls-1" x="32.17" y="64.28" width="42.36" height="3.02" transform="translate(-31.25 61.54) rotate(-48.09)"/>
    </g>
    <g>
      <line class="cls-1" x1="62.55" y1="111.3" x2="103.8" y2="120.07"/>
      <rect class="cls-1" x="81.66" y="94.6" width="3.02" height="42.17" transform="translate(-47.27 173) rotate(-78.01)"/>
    </g>
    <g>
      <line class="cls-1" x1="62.55" y1="111.3" x2="87.35" y2="137.15"/>
      <rect class="cls-1" x="73.94" y="106.32" width="2.02" height="35.82" transform="translate(-65.14 86.47) rotate(-43.81)"/>
    </g>
    <g>
      <line class="cls-1" x1="92.78" y1="157.67" x2="125.67" y2="163.68"/>
      <rect class="cls-1" x="108.22" y="143.96" width="2.02" height="33.43" transform="translate(-68.47 239.23) rotate(-79.64)"/>
    </g>
    <g>
      <line class="cls-1" x1="85.11" y1="173.44" x2="125.67" y2="163.68"/>
      <rect class="cls-1" x="84.54" y="167.55" width="41.71" height="2.02" transform="translate(-36.55 29.38) rotate(-13.55)"/>
    </g>
    <g>
      <circle class="cls-1" cx="79.44" cy="151.66" r="2.47"/>
      <path class="cls-1" d="m79.44,154.64c-1.64,0-2.98-1.33-2.98-2.98s1.33-2.98,2.98-2.98,2.98,1.33,2.98,2.98-1.34,2.98-2.98,2.98Zm0-4.94c-1.08,0-1.97.88-1.97,1.97s.88,1.97,1.97,1.97,1.97-.88,1.97-1.97-.88-1.97-1.97-1.97Z"/>
    </g>
    <g>
      <line class="cls-1" x1="85.11" y1="173.44" x2="92.78" y2="157.67"/>
      <rect class="cls-1" x="80.18" y="164.55" width="17.54" height="2.02" transform="translate(-98.84 173.13) rotate(-64.06)"/>
    </g>
    <g>
      <line class="cls-1" x1="85.07" y1="172.84" x2="53.34" y2="165.3"/>
      <rect class="cls-1" x="68.2" y="152.76" width="2.02" height="32.62" transform="translate(-111.29 197.3) rotate(-76.63)"/>
    </g>
    <g>
      <line class="cls-1" x1="78.34" y1="164.35" x2="54.52" y2="165.58"/>
      <rect class="cls-1" x="54.5" y="164.46" width="23.85" height="1.01" transform="translate(-8.3 3.59) rotate(-2.91)"/>
    </g>
    <g>
      <line class="cls-1" x1="71.57" y1="156.06" x2="54.52" y2="165.58"/>
      <rect class="cls-1" x="53.28" y="159.81" width="19.53" height="2.02" transform="translate(-70.39 51.12) rotate(-29.17)"/>
    </g>
    <g>
      <line class="cls-1" x1="53.34" y1="146.29" x2="72.27" y2="154.58"/>
      <rect class="cls-1" x="61.8" y="140.1" width="2.02" height="20.67" transform="translate(-100.18 147.62) rotate(-66.35)"/>
    </g>
    <g>
      <line class="cls-1" x1="53.34" y1="146.29" x2="87.35" y2="137.15"/>
      <rect class="cls-1" x="52.74" y="140.71" width="35.21" height="2.02" transform="translate(-34.39 23.13) rotate(-15.05)"/>
    </g>
    <g>
      <line class="cls-1" x1="87.35" y1="137.15" x2="92.78" y2="157.67"/>
      <rect class="cls-1" x="89.06" y="136.79" width="2.02" height="21.23" transform="translate(-34.74 27.97) rotate(-14.83)"/>
    </g>
    <g>
      <circle class="cls-1" cx="78.34" cy="164.35" r="2.47"/>
      <path class="cls-1" d="m78.34,167.32c-1.64,0-2.98-1.33-2.98-2.98s1.33-2.98,2.98-2.98,2.98,1.33,2.98,2.98-1.33,2.98-2.98,2.98Zm0-4.94c-1.08,0-1.97.88-1.97,1.97s.88,1.97,1.97,1.97,1.97-.88,1.97-1.97-.88-1.97-1.97-1.97Z"/>
    </g>
    <g>
      <line class="cls-1" x1="106.27" y1="164.1" x2="78.34" y2="164.35"/>
      <rect class="cls-1" x="78.34" y="163.72" width="27.93" height="1.01" transform="translate(-1.44 .82) rotate(-.5)"/>
    </g>
    <g>
      <circle class="cls-1" cx="96.31" cy="168.58" r="2.47"/>
      <path class="cls-1" d="m96.31,171.56c-1.64,0-2.98-1.33-2.98-2.98s1.33-2.98,2.98-2.98,2.98,1.33,2.98,2.98-1.33,2.98-2.98,2.98Zm0-4.94c-1.08,0-1.97.88-1.97,1.97s.88,1.97,1.97,1.97,1.97-.88,1.97-1.97-.88-1.97-1.97-1.97Z"/>
    </g>
    <g>
      <line class="cls-1" x1="106.27" y1="164.1" x2="96.31" y2="168.58"/>
      <rect class="cls-1" x="95.83" y="165.84" width="10.92" height="1.01" transform="translate(-59.31 56.17) rotate(-24.21)"/>
    </g>
    <g>
      <line class="cls-1" x1="96.31" y1="168.58" x2="78.34" y2="164.35"/>
      <rect class="cls-1" x="86.82" y="157.24" width="1.01" height="18.46" transform="translate(-94.73 213.28) rotate(-76.74)"/>
    </g>
    <g>
      <circle class="cls-1" cx="40.82" cy="146.29" r="3.89"/>
      <path class="cls-1" d="m40.82,150.68c-2.43,0-4.4-1.97-4.4-4.4s1.97-4.4,4.4-4.4,4.4,1.97,4.4,4.4-1.97,4.4-4.4,4.4Zm0-7.79c-1.87,0-3.39,1.52-3.39,3.39s1.52,3.39,3.39,3.39,3.39-1.52,3.39-3.39-1.52-3.39-3.39-3.39Z"/>
    </g>
    <g>
      <line class="cls-1" x1="25.07" y1="144.94" x2="40.82" y2="146.29"/>
      <rect class="cls-1" x="31.94" y="137.71" width="2.02" height="15.8" transform="translate(-114.94 166.02) rotate(-85.11)"/>
    </g>
    <g>
      <line class="cls-1" x1="25.07" y1="144.94" x2="54.52" y2="165.58"/>
      <rect class="cls-1" x="38.79" y="137.28" width="2.02" height="35.96" transform="translate(-110.18 98.72) rotate(-54.97)"/>
    </g>
    <g>
      <line class="cls-1" x1="53.34" y1="146.29" x2="53.34" y2="164.35"/>
      <rect class="cls-1" x="52.33" y="146.29" width="2.02" height="18.06"/>
    </g>
    <g>
      <line class="cls-1" x1="78.34" y1="164.35" x2="79.44" y2="151.66"/>
      <rect class="cls-1" x="72.52" y="157.5" width="12.74" height="1.01" transform="translate(-85.31 223.02) rotate(-85.07)"/>
    </g>
    <g>
      <line class="cls-1" x1="46.98" y1="154.58" x2="78.34" y2="164.35"/>
      <rect class="cls-1" x="62.16" y="143.04" width="1.01" height="32.85" transform="translate(-108.22 171.87) rotate(-72.7)"/>
    </g>
    <g>
      <line class="cls-1" x1="92.78" y1="157.67" x2="79.44" y2="151.66"/>
      <rect class="cls-1" x="85.1" y="147.35" width="2.02" height="14.64" transform="translate(-90.28 169.66) rotate(-65.75)"/>
    </g>
    <g>
      <line class="cls-1" x1="79.44" y1="151.66" x2="60.59" y2="135.63"/>
      <rect class="cls-1" x="69" y="131.28" width="2.02" height="24.74" transform="translate(-84.78 103.94) rotate(-49.63)"/>
    </g>
    <g>
      <line class="cls-1" x1="33.7" y1="136.84" x2="46.98" y2="154.58"/>
      <rect class="cls-1" x="39.84" y="134.63" width="1.01" height="22.17" transform="translate(-79.27 53.23) rotate(-36.81)"/>
    </g>
    <g>
      <line class="cls-1" x1="31.23" y1="116.48" x2="40.34" y2="129.42"/>
      <rect class="cls-1" x="35.28" y="115.04" width="1.01" height="15.83" transform="translate(-64.25 43.01) rotate(-35.14)"/>
    </g>
    <g>
      <line class="cls-1" x1="33.7" y1="136.84" x2="31.23" y2="116.48"/>
      <rect class="cls-1" x="31.96" y="116.4" width="1.01" height="20.51" transform="translate(-15.03 4.84) rotate(-6.92)"/>
    </g>
    <g>
      <line class="cls-1" x1="46.98" y1="154.58" x2="40.34" y2="129.42"/>
      <rect class="cls-1" x="43.16" y="128.99" width="1.01" height="26.02" transform="translate(-34.8 15.85) rotate(-14.79)"/>
    </g>
    <g>
      <line class="cls-1" x1="62.55" y1="111.3" x2="53.34" y2="146.29"/>
      <rect class="cls-1" x="39.86" y="127.79" width="36.17" height="2.02" transform="translate(-81.36 151.99) rotate(-75.23)"/>
    </g>
    <g>
      <line class="cls-1" x1="40.82" y1="129.42" x2="60.59" y2="135.63"/>
      <rect class="cls-1" x="49.7" y="122.17" width="2.02" height="20.72" transform="translate(-90.93 141.18) rotate(-72.56)"/>
    </g>
    <g>
      <line class="cls-1" x1="10.71" y1="122.48" x2="25.07" y2="144.94"/>
      <rect class="cls-1" x="16.89" y="120.38" width="2.02" height="26.65" transform="translate(-69.23 30.71) rotate(-32.61)"/>
    </g>
    <rect class="cls-1" x="24.07" y="126.33" width="2.02" height="18.61"/>
    <g>
      <line class="cls-1" x1="25.07" y1="126.33" x2="10.71" y2="122.48"/>
      <rect class="cls-1" x="16.89" y="116.97" width="2.02" height="14.87" transform="translate(-106.91 109.49) rotate(-75)"/>
    </g>
    <g>
      <line class="cls-1" x1="10.71" y1="122.48" x2="4.63" y2="92.87"/>
      <rect class="cls-1" x="6.67" y="92.56" width="2.02" height="30.23" transform="translate(-21.49 3.74) rotate(-11.6)"/>
    </g>
    <g>
      <line class="cls-1" x1="25.07" y1="144.94" x2="31.23" y2="116.48"/>
      <rect class="cls-1" x="13.59" y="130.2" width="29.12" height="1.01" transform="translate(-105.55 130.63) rotate(-77.81)"/>
    </g>
    <g>
      <line class="cls-1" x1="9.83" y1="59.22" x2="4.63" y2="92.87"/>
      <rect class="cls-1" x="-9.79" y="75.04" width="34.04" height="2.02" transform="translate(-69.03 71.61) rotate(-81.24)"/>
    </g>
    <g>
      <line class="cls-1" x1="25.07" y1="33.89" x2="9.83" y2="59.22"/>
      <rect class="cls-1" x="2.67" y="45.55" width="29.57" height="2.02" transform="translate(-31.44 37.49) rotate(-58.95)"/>
    </g>
    <g>
      <line class="cls-1" x1="40.65" y1="18.32" x2="25.07" y2="33.89"/>
      <rect class="cls-1" x="21.85" y="25.1" width="22.02" height="2.02" transform="translate(-8.84 30.88) rotate(-45)"/>
    </g>
    <g>
      <line class="cls-1" x1="69.87" y1="6.16" x2="40.65" y2="18.32"/>
      <rect class="cls-1" x="39.44" y="11.23" width="31.65" height="2.02" transform="translate(-.45 22.21) rotate(-22.63)"/>
    </g>
    <g>
      <line class="cls-1" x1="69.87" y1="6.16" x2="97.53" y2="4.4"/>
      <rect class="cls-1" x="69.85" y="4.27" width="27.72" height="2.02" transform="translate(-.17 5.32) rotate(-3.64)"/>
    </g>
    <g>
      <line class="cls-1" x1="97.53" y1="4.4" x2="131.53" y2="14.43"/>
      <rect class="cls-1" x="113.52" y="-8.31" width="2.02" height="35.44" transform="translate(73.09 116.6) rotate(-73.56)"/>
    </g>
    <g>
      <line class="cls-1" x1="131.53" y1="14.43" x2="155.05" y2="36.35"/>
      <rect class="cls-1" x="142.28" y="9.31" width="2.02" height="32.15" transform="translate(27.02 112.9) rotate(-47.01)"/>
    </g>
    <g>
      <line class="cls-1" x1="146.21" y1="149.19" x2="125.67" y2="163.68"/>
      <rect class="cls-1" x="123.37" y="155.43" width="25.14" height="2.02" transform="translate(-65.3 106.89) rotate(-35.18)"/>
    </g>
    <g>
      <line class="cls-1" x1="164.98" y1="129.56" x2="146.21" y2="149.19"/>
      <rect class="cls-1" x="142.02" y="138.37" width="27.16" height="2.02" transform="translate(-52.68 155.45) rotate(-46.27)"/>
    </g>
    <g>
      <circle class="cls-1" cx="106.27" cy="147.74" r="5.14"/>
      <path class="cls-1" d="m106.27,153.38c-3.11,0-5.64-2.53-5.64-5.64s2.53-5.64,5.64-5.64,5.64,2.53,5.64,5.64-2.53,5.64-5.64,5.64Zm0-10.27c-2.56,0-4.63,2.08-4.63,4.63s2.08,4.63,4.63,4.63,4.63-2.08,4.63-4.63-2.08-4.63-4.63-4.63Z"/>
    </g>
    <g>
      <circle class="cls-1" cx="141.06" cy="134.36" r="5.14"/>
      <path class="cls-1" d="m141.06,140.01c-3.11,0-5.64-2.53-5.64-5.64s2.53-5.64,5.64-5.64,5.64,2.53,5.64,5.64-2.53,5.64-5.64,5.64Zm0-10.28c-2.56,0-4.63,2.08-4.63,4.63s2.08,4.63,4.63,4.63,4.63-2.08,4.63-4.63-2.08-4.63-4.63-4.63Z"/>
    </g>
    <g>
      <circle class="cls-1" cx="128.65" cy="146.29" r="5.14"/>
      <path class="cls-1" d="m128.66,151.93c-3.11,0-5.64-2.53-5.64-5.64s2.53-5.64,5.64-5.64,5.64,2.53,5.64,5.64-2.53,5.64-5.64,5.64Zm0-10.28c-2.56,0-4.63,2.08-4.63,4.63s2.08,4.63,4.63,4.63,4.63-2.08,4.63-4.63-2.08-4.63-4.63-4.63Z"/>
    </g>
    <g>
      <line class="cls-1" x1="103.8" y1="120.07" x2="106.27" y2="147.74"/>
      <rect class="cls-1" x="104.03" y="120.01" width="2.02" height="27.78" transform="translate(-11.5 9.87) rotate(-5.1)"/>
    </g>
    <g>
      <line class="cls-1" x1="103.8" y1="120.07" x2="128.65" y2="146.29"/>
      <rect class="cls-1" x="115.22" y="115.11" width="2.01" height="36.13" transform="translate(-59.74 116.48) rotate(-43.47)"/>
    </g>
    <g>
      <line class="cls-1" x1="106.27" y1="147.74" x2="125.67" y2="163.68"/>
      <rect class="cls-1" x="114.96" y="143.16" width="2.02" height="25.11" transform="translate(-77.96 146.4) rotate(-50.57)"/>
    </g>
    <g>
      <line class="cls-1" x1="146.21" y1="149.19" x2="128.65" y2="146.29"/>
      <rect class="cls-1" x="136.42" y="138.84" width="2.02" height="17.79" transform="translate(-30.76 259.21) rotate(-80.61)"/>
    </g>
    <g>
      <line class="cls-1" x1="141.06" y1="134.36" x2="125.67" y2="163.68"/>
      <rect class="cls-1" x="116.81" y="148.02" width="33.11" height="2.02" transform="translate(-60.57 197.86) rotate(-62.31)"/>
    </g>
    <g>
      <circle class="cls-1" cx="97.53" cy="147.24" r="2.47"/>
      <path class="cls-1" d="m97.54,150.22c-1.64,0-2.98-1.34-2.98-2.98s1.34-2.98,2.98-2.98,2.98,1.33,2.98,2.98-1.33,2.98-2.98,2.98Zm0-4.94c-1.09,0-1.97.88-1.97,1.97s.88,1.97,1.97,1.97,1.97-.88,1.97-1.97-.88-1.97-1.97-1.97Z"/>
    </g>
    <g>
      <circle class="cls-1" cx="30.47" cy="42.7" r="2.47"/>
      <path class="cls-1" d="m30.47,45.68c-1.64,0-2.98-1.33-2.98-2.98s1.33-2.98,2.98-2.98,2.98,1.33,2.98,2.98-1.33,2.98-2.98,2.98Zm0-4.94c-1.08,0-1.97.88-1.97,1.97s.88,1.97,1.97,1.97,1.97-.88,1.97-1.97-.88-1.97-1.97-1.97Z"/>
    </g>
    <g>
      <circle class="cls-1" cx="22.82" cy="63.07" r="2.47"/>
      <path class="cls-1" d="m22.82,66.04c-1.64,0-2.98-1.33-2.98-2.98s1.33-2.98,2.98-2.98,2.98,1.33,2.98,2.98-1.33,2.98-2.98,2.98Zm0-4.94c-1.08,0-1.97.88-1.97,1.97s.88,1.97,1.97,1.97,1.97-.88,1.97-1.97-.88-1.97-1.97-1.97Z"/>
    </g>
    <g>
      <circle class="cls-1" cx="139.56" cy="29.39" r="2.47"/>
      <path class="cls-1" d="m139.56,32.36c-1.64,0-2.98-1.33-2.98-2.98s1.33-2.98,2.98-2.98,2.98,1.33,2.98,2.98-1.33,2.98-2.98,2.98Zm0-4.94c-1.08,0-1.97.88-1.97,1.97s.88,1.97,1.97,1.97,1.97-.88,1.97-1.97-.88-1.97-1.97-1.97Z"/>
    </g>
    <g>
      <circle class="cls-1" cx="157.88" cy="51.03" r="2.47"/>
      <path class="cls-1" d="m157.88,54c-1.64,0-2.98-1.33-2.98-2.98s1.33-2.98,2.98-2.98,2.98,1.34,2.98,2.98-1.34,2.98-2.98,2.98Zm0-4.94c-1.08,0-1.97.88-1.97,1.97s.88,1.97,1.97,1.97,1.97-.88,1.97-1.97-.88-1.97-1.97-1.97Z"/>
    </g>
    <g>
      <circle class="cls-1" cx="150.57" cy="135.63" r="2.47"/>
      <path class="cls-1" d="m150.57,138.61c-1.64,0-2.98-1.34-2.98-2.98s1.34-2.98,2.98-2.98,2.98,1.33,2.98,2.98-1.33,2.98-2.98,2.98Zm0-4.94c-1.09,0-1.97.88-1.97,1.97s.88,1.97,1.97,1.97,1.97-.88,1.97-1.97-.88-1.97-1.97-1.97Z"/>
    </g>
    <g>
      <line class="cls-1" x1="16.46" y1="113.8" x2="33.7" y2="136.84"/>
      <rect class="cls-1" x="24.57" y="110.93" width="1.01" height="28.77" transform="translate(-70.09 40.02) rotate(-36.81)"/>
    </g>
    <g>
      <line class="cls-1" x1="16.46" y1="113.8" x2="22.82" y2="63.07"/>
      <rect class="cls-1" x="-5.92" y="87.93" width="51.13" height="1.01" transform="translate(-70.56 96.87) rotate(-82.82)"/>
    </g>
    <g>
      <line class="cls-1" x1="22.82" y1="63.07" x2="30.47" y2="42.7"/>
      <rect class="cls-1" x="15.77" y="52.38" width="21.75" height="1.01" transform="translate(-32.23 59.22) rotate(-69.4)"/>
    </g>
    <g>
      <line class="cls-1" x1="13.99" y1="86.34" x2="29.97" y2="100.42"/>
      <rect class="cls-1" x="20.97" y="82.73" width="2.02" height="21.3" transform="translate(-62.63 48.17) rotate(-48.64)"/>
    </g>
    <g>
      <line class="cls-1" x1="10.71" y1="122.48" x2="29.97" y2="100.42"/>
      <rect class="cls-1" x="5.7" y="110.44" width="29.29" height="2.01" transform="translate(-77 53.49) rotate(-48.88)"/>
    </g>
    <g>
      <line class="cls-1" x1="22.82" y1="77.65" x2="9.83" y2="59.22"/>
      <rect class="cls-1" x="15.32" y="57.16" width="2.02" height="22.55" transform="translate(-36.46 21.92) rotate(-35.2)"/>
    </g>
    <g>
      <line class="cls-1" x1="4.63" y1="92.87" x2="29.97" y2="100.42"/>
      <rect class="cls-1" x="16.3" y="83.42" width="2.02" height="26.44" transform="translate(-80.26 85.62) rotate(-73.4)"/>
    </g>
    <g>
      <circle class="cls-1" cx="13.99" cy="73" r="2.47"/>
      <path class="cls-1" d="m13.99,75.97c-1.64,0-2.98-1.34-2.98-2.98s1.33-2.98,2.98-2.98,2.98,1.33,2.98,2.98-1.33,2.98-2.98,2.98Zm0-4.94c-1.08,0-1.97.88-1.97,1.97s.88,1.97,1.97,1.97,1.97-.88,1.97-1.97-.88-1.97-1.97-1.97Z"/>
    </g>
    <g>
      <line class="cls-1" x1="16.46" y1="113.8" x2="13.99" y2="73"/>
      <rect class="cls-1" x="14.72" y="72.96" width="1.01" height="40.88" transform="translate(-5.62 1.09) rotate(-3.47)"/>
    </g>
    <g>
      <line class="cls-1" x1="13.99" y1="73" x2="30.47" y2="42.7"/>
      <rect class="cls-1" x="4.98" y="57.35" width="34.49" height="1.01" transform="translate(-39.21 49.71) rotate(-61.43)"/>
    </g>
    <g>
      <line class="cls-1" x1="29.97" y1="100.42" x2="62.55" y2="111.3"/>
      <rect class="cls-1" x="45.25" y="88.69" width="2.01" height="34.35" transform="translate(-68.8 116.2) rotate(-71.53)"/>
    </g>
    <g>
      <line class="cls-1" x1="29.97" y1="100.42" x2="39.19" y2="81.54"/>
      <rect class="cls-1" x="24.08" y="89.97" width="21.01" height="2.02" transform="translate(-62.35 82.16) rotate(-63.99)"/>
    </g>
    <g>
      <line class="cls-1" x1="29.97" y1="100.42" x2="53.34" y2="146.29"/>
      <rect class="cls-1" x="40.65" y="97.61" width="2.02" height="51.48" transform="translate(-51.46 32.36) rotate(-27)"/>
    </g>
    <g>
      <circle class="cls-1" cx="36.17" cy="57.72" r="6.48"/>
      <path class="cls-1" d="m36.17,64.7c-3.85,0-6.98-3.13-6.98-6.98s3.13-6.98,6.98-6.98,6.98,3.13,6.98,6.98-3.13,6.98-6.98,6.98Zm0-12.95c-3.29,0-5.97,2.68-5.97,5.97s2.68,5.97,5.97,5.97,5.97-2.68,5.97-5.97-2.68-5.97-5.97-5.97Z"/>
    </g>
    <g>
      <circle class="cls-1" cx="53.36" cy="32.47" r="5.14"/>
      <path class="cls-1" d="m53.36,38.11c-3.11,0-5.64-2.53-5.64-5.64s2.53-5.64,5.64-5.64,5.64,2.53,5.64,5.64-2.53,5.64-5.64,5.64Zm0-10.27c-2.55,0-4.63,2.08-4.63,4.63s2.08,4.63,4.63,4.63,4.63-2.08,4.63-4.63-2.08-4.63-4.63-4.63Z"/>
    </g>
    <g>
      <circle class="cls-1" cx="101.43" cy="13.57" r="2.47"/>
      <path class="cls-1" d="m101.43,16.54c-1.64,0-2.98-1.33-2.98-2.98s1.33-2.98,2.98-2.98,2.98,1.33,2.98,2.98-1.34,2.98-2.98,2.98Zm0-4.94c-1.08,0-1.97.88-1.97,1.97s.88,1.97,1.97,1.97,1.97-.88,1.97-1.97-.88-1.97-1.97-1.97Z"/>
    </g>
    <g>
      <circle class="cls-1" cx="67.49" cy="26.11" r="2.47"/>
      <path class="cls-1" d="m67.49,29.08c-1.64,0-2.98-1.33-2.98-2.98s1.33-2.98,2.98-2.98,2.98,1.33,2.98,2.98-1.33,2.98-2.98,2.98Zm0-4.94c-1.08,0-1.97.88-1.97,1.97s.88,1.97,1.97,1.97,1.97-.88,1.97-1.97-.88-1.97-1.97-1.97Z"/>
    </g>
    <g>
      <circle class="cls-1" cx="60.59" cy="14.43" r="2.47"/>
      <path class="cls-1" d="m60.59,17.4c-1.64,0-2.98-1.33-2.98-2.98s1.33-2.98,2.98-2.98,2.98,1.33,2.98,2.98-1.34,2.98-2.98,2.98Zm0-4.94c-1.08,0-1.97.88-1.97,1.97s.88,1.97,1.97,1.97,1.97-.88,1.97-1.97-.88-1.97-1.97-1.97Z"/>
    </g>
    <g>
      <circle class="cls-1" cx="37.87" cy="30" r="2.47"/>
      <path class="cls-1" d="m37.87,32.97c-1.64,0-2.98-1.34-2.98-2.98s1.34-2.98,2.98-2.98,2.98,1.33,2.98,2.98-1.33,2.98-2.98,2.98Zm0-4.94c-1.09,0-1.97.88-1.97,1.97s.88,1.97,1.97,1.97,1.97-.88,1.97-1.97-.88-1.97-1.97-1.97Z"/>
    </g>
    <g>
      <line class="cls-1" x1="39.19" y1="81.54" x2="36.17" y2="57.72"/>
      <rect class="cls-1" x="36.67" y="57.62" width="2.02" height="24.02" transform="translate(-8.46 5.29) rotate(-7.23)"/>
    </g>
    <g>
      <line class="cls-1" x1="36.17" y1="57.72" x2="53.36" y2="32.47"/>
      <rect class="cls-1" x="29.49" y="44.09" width="30.54" height="2.01" transform="translate(-17.7 56.72) rotate(-55.75)"/>
    </g>
    <g>
      <line class="cls-1" x1="53.36" y1="32.47" x2="67.49" y2="50.03"/>
      <rect class="cls-1" x="59.42" y="29.98" width="2.02" height="22.54" transform="translate(-12.51 47) rotate(-38.83)"/>
    </g>
    <g>
      <line class="cls-1" x1="81.22" y1="20.29" x2="40.65" y2="18.32"/>
      <rect class="cls-1" x="59.93" y="-1" width="2.02" height="40.62" transform="translate(38.7 79.24) rotate(-87.22)"/>
    </g>
    <g>
      <line class="cls-1" x1="69.87" y1="6.16" x2="81.22" y2="20.29"/>
      <rect class="cls-1" x="74.54" y="4.16" width="2.02" height="18.13" transform="translate(8.35 50.2) rotate(-38.75)"/>
    </g>
    <g>
      <line class="cls-1" x1="25.07" y1="33.89" x2="53.36" y2="32.47"/>
      <rect class="cls-1" x="25.06" y="32.17" width="28.32" height="2.02" transform="translate(-1.6 1.99) rotate(-2.85)"/>
    </g>
    <g>
      <line class="cls-1" x1="36.17" y1="57.72" x2="25.07" y2="33.89"/>
      <rect class="cls-1" x="29.62" y="32.66" width="2.01" height="26.28" transform="translate(-16.48 17.21) rotate(-24.97)"/>
    </g>
    <g>
      <line class="cls-1" x1="30.47" y1="42.7" x2="67.49" y2="26.11"/>
      <rect class="cls-1" x="28.69" y="33.9" width="40.58" height="1.01" transform="translate(-9.78 23.01) rotate(-24.11)"/>
    </g>
    <g>
      <line class="cls-1" x1="37.87" y1="30" x2="60.59" y2="14.43"/>
      <rect class="cls-1" x="35.46" y="21.71" width="27.54" height="1.01" transform="translate(-3.94 31.7) rotate(-34.4)"/>
    </g>
    <g>
      <line class="cls-1" x1="30.47" y1="42.7" x2="60.59" y2="14.43"/>
      <rect class="cls-1" x="24.87" y="28.06" width="41.31" height="1.01" transform="translate(-7.22 38.89) rotate(-43.18)"/>
    </g>
    <g>
      <line class="cls-1" x1="60.59" y1="14.43" x2="101.43" y2="13.57"/>
      <rect class="cls-1" x="60.58" y="13.49" width="40.85" height="1.01" transform="translate(-.28 1.74) rotate(-1.23)"/>
    </g>
    <g>
      <line class="cls-1" x1="54.52" y1="32.47" x2="107.6" y2="22.22"/>
      <rect class="cls-1" x="54.03" y="26.34" width="54.06" height="2.01" transform="translate(-3.71 15.86) rotate(-10.93)"/>
    </g>
    <g>
      <line class="cls-1" x1="131.53" y1="14.43" x2="69.87" y2="6.16"/>
      <rect class="cls-1" x="99.69" y="-20.81" width="2.02" height="62.21" transform="translate(77.11 108.73) rotate(-82.36)"/>
    </g>
    <g>
      <line class="cls-1" x1="67.49" y1="50.03" x2="107.6" y2="22.22"/>
      <rect class="cls-1" x="63.14" y="35.12" width="48.8" height="2.02" transform="translate(-4.97 56.39) rotate(-34.78)"/>
    </g>
    <g>
      <line class="cls-1" x1="105.39" y1="22.64" x2="131.53" y2="14.43"/>
      <rect class="cls-1" x="104.76" y="17.53" width="27.4" height="2.02" transform="translate(-.11 36.36) rotate(-17.44)"/>
    </g>
    <g>
      <line class="cls-1" x1="101.43" y1="13.57" x2="127.96" y2="32.47"/>
      <rect class="cls-1" x="114.19" y="6.73" width="1.01" height="32.58" transform="translate(29.39 103.07) rotate(-54.53)"/>
    </g>
    <g>
      <line class="cls-1" x1="117.46" y1="150.02" x2="150.57" y2="135.63"/>
      <rect class="cls-1" x="115.97" y="142.32" width="36.1" height="1.01" transform="translate(-45.79 65.17) rotate(-23.46)"/>
    </g>
    <g>
      <line class="cls-1" x1="117.46" y1="150.02" x2="97.53" y2="147.24"/>
      <rect class="cls-1" x="107" y="138.57" width="1.01" height="20.12" transform="translate(-54.55 234.58) rotate(-82.06)"/>
    </g>
    <g>
      <line class="cls-1" x1="117.46" y1="150.02" x2="106.27" y2="164.1"/>
      <rect class="cls-1" x="102.87" y="156.56" width="17.99" height="1.01" transform="translate(-80.69 146.83) rotate(-51.5)"/>
    </g>
    <g>
      <line class="cls-1" x1="127.96" y1="32.47" x2="146.2" y2="51.03"/>
      <rect class="cls-1" x="136.58" y="28.74" width="1.01" height="26.02" transform="translate(10.05 108.06) rotate(-44.51)"/>
    </g>
    <g>
      <line class="cls-1" x1="127.96" y1="32.47" x2="157.88" y2="51.03"/>
      <rect class="cls-1" x="142.42" y="24.14" width="1.01" height="35.21" transform="translate(32.12 141.21) rotate(-58.2)"/>
    </g>
    <g>
      <line class="cls-1" x1="139.56" y1="29.39" x2="127.96" y2="32.47"/>
      <polygon class="cls-1" points="128.09 32.96 127.83 31.98 139.43 28.9 139.69 29.87 128.09 32.96"/>
    </g>
    <g>
      <circle class="cls-1" cx="77.18" cy="30.69" r="2.47"/>
      <path class="cls-1" d="m77.18,33.66c-1.64,0-2.98-1.34-2.98-2.98s1.33-2.98,2.98-2.98,2.98,1.33,2.98,2.98-1.33,2.98-2.98,2.98Zm0-4.94c-1.08,0-1.97.88-1.97,1.97s.88,1.97,1.97,1.97,1.97-.88,1.97-1.97-.88-1.97-1.97-1.97Z"/>
    </g>
    <g>
      <circle class="cls-1" cx="127" cy="131.94" r="2.47"/>
      <path class="cls-1" d="m127,134.92c-1.64,0-2.98-1.34-2.98-2.98s1.34-2.98,2.98-2.98,2.98,1.33,2.98,2.98-1.33,2.98-2.98,2.98Zm0-4.94c-1.09,0-1.97.88-1.97,1.97s.88,1.97,1.97,1.97,1.97-.88,1.97-1.97-.88-1.97-1.97-1.97Z"/>
    </g>
    <g>
      <line class="cls-1" x1="127" y1="131.94" x2="117.46" y2="150.02"/>
      <rect class="cls-1" x="112.01" y="140.48" width="20.44" height="1.01" transform="translate(-59.49 183.3) rotate(-62.18)"/>
    </g>
    <g>
      <circle class="cls-1" cx="47.15" cy="51.93" r="2.47"/>
      <path class="cls-1" d="m47.15,54.91c-1.64,0-2.98-1.33-2.98-2.98s1.33-2.98,2.98-2.98,2.98,1.33,2.98,2.98-1.33,2.98-2.98,2.98Zm0-4.94c-1.08,0-1.97.88-1.97,1.97s.88,1.97,1.97,1.97,1.97-.88,1.97-1.97-.88-1.97-1.97-1.97Z"/>
    </g>
    <g>
      <circle class="cls-1" cx="48.22" cy="118.7" r="2.47"/>
      <path class="cls-1" d="m48.22,121.68c-1.64,0-2.98-1.33-2.98-2.98s1.34-2.98,2.98-2.98,2.98,1.33,2.98,2.98-1.33,2.98-2.98,2.98Zm0-4.94c-1.09,0-1.97.88-1.97,1.97s.88,1.97,1.97,1.97,1.97-.88,1.97-1.97-.88-1.97-1.97-1.97Z"/>
    </g>
    <g>
      <circle class="cls-1" cx="98.96" cy="133.16" r="2.47"/>
      <path class="cls-1" d="m98.96,136.14c-1.64,0-2.98-1.33-2.98-2.98s1.33-2.98,2.98-2.98,2.98,1.33,2.98,2.98-1.33,2.98-2.98,2.98Zm0-4.94c-1.08,0-1.97.88-1.97,1.97s.88,1.97,1.97,1.97,1.97-.88,1.97-1.97-.88-1.97-1.97-1.97Z"/>
    </g>
    <g>
      <circle class="cls-1" cx="115.02" cy="30" r="2.47"/>
      <path class="cls-1" d="m115.02,32.97c-1.64,0-2.98-1.34-2.98-2.98s1.33-2.98,2.98-2.98,2.98,1.33,2.98,2.98-1.33,2.98-2.98,2.98Zm0-4.94c-1.08,0-1.97.88-1.97,1.97s.88,1.97,1.97,1.97,1.97-.88,1.97-1.97-.88-1.97-1.97-1.97Z"/>
    </g>
    <g>
      <circle class="cls-1" cx="92.37" cy="161.97" r="2.9"/>
      <path class="cls-1" d="m92.38,165.38c-1.88,0-3.41-1.53-3.41-3.41s1.53-3.4,3.41-3.4,3.4,1.53,3.4,3.4-1.53,3.41-3.4,3.41Zm0-5.8c-1.32,0-2.4,1.07-2.4,2.4s1.08,2.4,2.4,2.4,2.4-1.08,2.4-2.4-1.07-2.4-2.4-2.4Z"/>
    </g>
    <g>
      <path class="cls-1" d="m66.28,92.03v-21.16h15.99v3.93h-11.13v13.3h11.52v3.93h-16.39Zm4.5-8.83v-3.84h10.19v3.84h-10.19Z"/>
      <path class="cls-1" d="m83.54,92.03l7.32-9.52-.09,2.6-6.95-9.34h5.26l4.41,6.08-1.99.06,4.54-6.14h5.05l-7.04,9.22.03-2.54,7.26,9.58h-5.35l-4.63-6.47,1.97.27-4.57,6.2h-5.2Z"/>
      <path class="cls-1" d="m103.62,97.9v-22.13h4.5v3.33l-.09,4.84.3,4.81v9.16h-4.72Zm9.58-5.62c-1.35,0-2.54-.3-3.57-.91-1.03-.6-1.83-1.53-2.4-2.77-.57-1.24-.86-2.81-.86-4.7s.27-3.49.82-4.72c.54-1.23,1.33-2.15,2.37-2.75,1.04-.61,2.25-.91,3.64-.91,1.55,0,2.94.35,4.16,1.04,1.22.7,2.19,1.67,2.9,2.92.72,1.25,1.07,2.72,1.07,4.42s-.36,3.19-1.07,4.43c-.72,1.24-1.68,2.21-2.9,2.9-1.22.7-2.61,1.04-4.16,1.04Zm-.79-3.87c.79,0,1.49-.18,2.1-.54s1.11-.88,1.48-1.56.56-1.48.56-2.4-.19-1.75-.56-2.42-.87-1.17-1.48-1.53-1.31-.53-2.1-.53-1.49.18-2.12.53c-.62.35-1.12.86-1.5,1.53s-.56,1.47-.56,2.42.19,1.73.56,2.4.87,1.19,1.5,1.56c.62.36,1.33.54,2.12.54Z"/>
      <path class="cls-1" d="m129.53,92.28c-1.25,0-2.33-.22-3.24-.65-.91-.43-1.61-1.02-2.1-1.77-.5-.75-.74-1.58-.74-2.51s.24-1.79.71-2.52c.47-.74,1.22-1.31,2.25-1.71,1.03-.4,2.38-.61,4.05-.61h4.29v2.72h-3.81c-1.11,0-1.87.18-2.28.54-.41.36-.62.82-.62,1.36,0,.6.24,1.08.71,1.44s1.11.53,1.92.53,1.53-.18,2.16-.54c.64-.36,1.08-.92,1.35-1.66l.73,2.21c-.34,1.01-.97,1.79-1.87,2.34-.91.56-2.08.83-3.51.83Zm4.96-.24v-3.17l-.3-.7v-5.68c0-1.01-.31-1.79-.92-2.36-.62-.56-1.56-.85-2.83-.85-.87,0-1.72.14-2.56.41-.84.27-1.56.64-2.16,1.1l-1.66-3.3c.89-.64,1.96-1.13,3.21-1.47,1.25-.33,2.52-.5,3.81-.5,2.48,0,4.4.58,5.77,1.75,1.37,1.17,2.06,2.99,2.06,5.47v9.28h-4.41Z"/>
      <path class="cls-1" d="m143.17,92.03v-16.27h4.5v4.5l-.85-1.36c.58-1.09,1.42-1.93,2.51-2.51s2.33-.88,3.72-.88c1.29,0,2.44.26,3.46.77,1.02.51,1.82,1.3,2.4,2.36.58,1.06.88,2.41.88,4.07v9.31h-4.72v-8.59c0-1.31-.29-2.28-.86-2.9s-1.39-.94-2.43-.94c-.75,0-1.42.16-2.01.48s-1.06.8-1.39,1.42-.5,1.45-.5,2.48v8.04h-4.72Z"/>
      <path class="cls-1" d="m171.01,92.28c-1.53,0-2.91-.35-4.14-1.04-1.23-.69-2.2-1.67-2.9-2.92s-1.06-2.72-1.06-4.41.35-3.16,1.06-4.42c.71-1.25,1.67-2.22,2.9-2.92,1.23-.7,2.61-1.04,4.14-1.04,1.37,0,2.57.3,3.6.91,1.03.6,1.82,1.52,2.39,2.75.56,1.23.85,2.8.85,4.72s-.27,3.47-.82,4.72-1.32,2.17-2.34,2.77c-1.02.59-2.24.89-3.67.89Zm.79-3.87c.79,0,1.49-.18,2.12-.53.62-.35,1.12-.87,1.5-1.56.37-.69.56-1.49.56-2.42s-.19-1.75-.56-2.42-.87-1.17-1.5-1.53-1.33-.53-2.12-.53-1.46.18-2.09.53-1.12.86-1.5,1.53c-.37.67-.56,1.47-.56,2.42s.19,1.73.56,2.42c.37.69.87,1.2,1.5,1.56.62.35,1.32.53,2.09.53Zm4.29,3.63v-3.33l.09-4.84-.3-4.81v-9.46h4.72v22.43h-4.5Z"/>
      <path class="cls-1" d="m193.02,92.28c-1.85,0-3.48-.36-4.87-1.09s-2.47-1.72-3.24-2.98-1.15-2.7-1.15-4.31.37-3.05,1.1-4.32c.74-1.27,1.76-2.26,3.08-2.98,1.32-.72,2.81-1.07,4.46-1.07s3.03.34,4.31,1.03,2.29,1.65,3.04,2.9c.75,1.25,1.12,2.75,1.12,4.5,0,.18,0,.39-.03.62-.02.23-.04.45-.06.65h-13.21v-2.75h10.73l-1.84.82c.02-.85-.14-1.58-.48-2.21-.34-.62-.82-1.11-1.42-1.47-.61-.35-1.31-.53-2.12-.53s-1.52.18-2.13.53c-.62.35-1.09.85-1.44,1.48s-.51,1.39-.51,2.25v.73c0,.91.2,1.69.61,2.36.4.67.96,1.17,1.66,1.53.71.35,1.55.53,2.54.53.85,0,1.6-.13,2.25-.39.66-.26,1.25-.66,1.8-1.18l2.51,2.72c-.75.85-1.68,1.5-2.81,1.95s-2.43.68-3.9.68Z"/>
      <path class="cls-1" d="m214.49,79.73c-.56,0-1.04-.19-1.42-.56s-.57-.82-.57-1.35.19-1.01.57-1.39.86-.57,1.42-.57,1.03.19,1.39.57c.36.38.54.85.54,1.39s-.18.97-.54,1.35c-.36.37-.83.56-1.39.56Zm-1.72,16.96l.54-14h2.3l.57,14h-3.42Z"/>
      <path class="cls-1" d="m225.59,92.03v-8.1l.7,1.87-9.1-14.94h3.24l7.65,12.61h-1.75l7.68-12.61h2.99l-9.07,14.94.67-1.87v8.1h-2.99Z"/>
      <path class="cls-1" d="m242.34,92.22c-1.19,0-2.23-.2-3.13-.61-.9-.4-1.59-.96-2.07-1.68-.48-.72-.73-1.53-.73-2.43s.21-1.65.62-2.36c.41-.71,1.09-1.27,2.03-1.69s2.2-.63,3.79-.63h5.08v2.09h-4.96c-1.45,0-2.43.24-2.93.73-.5.48-.76,1.07-.76,1.75,0,.79.31,1.42.94,1.89.62.47,1.49.71,2.6.71s2.04-.24,2.86-.73c.82-.48,1.41-1.19,1.77-2.12l.57,1.99c-.38.95-1.06,1.7-2.03,2.25s-2.19.83-3.66.83Zm5.26-.18v-3.39l-.15-.64v-5.77c0-1.23-.36-2.18-1.07-2.86s-1.79-1.01-3.22-1.01c-.95,0-1.87.16-2.78.47-.91.31-1.67.73-2.3,1.25l-1.21-2.18c.83-.67,1.82-1.17,2.98-1.53,1.16-.35,2.37-.53,3.64-.53,2.2,0,3.89.53,5.08,1.6,1.19,1.07,1.78,2.7,1.78,4.9v9.67h-2.75Z"/>
      <path class="cls-1" d="m257.06,92.22c-.56,0-1.04-.19-1.42-.57s-.57-.84-.57-1.36c0-.56.19-1.03.57-1.39.38-.36.86-.54,1.42-.54s1.03.18,1.39.54.54.83.54,1.39c0,.52-.18.98-.54,1.36-.36.38-.83.57-1.39.57Zm-1.18-6.86l-.54-14.48h3.42l-.57,14.48h-2.3Z"/>
    </g>
    <g>
      <path class="cls-1" d="m149.23,105.89c.67.34,1.19.83,1.55,1.47.36.64.54,1.39.54,2.25s-.18,1.61-.54,2.24c-.36.63-.87,1.12-1.55,1.45s-1.47.5-2.39.5h-2.62v-8.43h2.62c.92,0,1.72.17,2.39.51Zm.1,6.14c.57-.58.86-1.38.86-2.43s-.29-1.87-.87-2.45-1.4-.88-2.49-.88h-1.52v6.63h1.52c1.09,0,1.92-.29,2.49-.86Z"/>
      <path class="cls-1" d="m152.81,105.88c-.15-.14-.22-.32-.22-.53s.07-.39.22-.53c.14-.14.32-.22.53-.22s.37.07.51.22c.14.14.21.32.21.53s-.07.39-.21.53c-.14.15-.31.22-.51.22s-.39-.07-.53-.22Zm1.06,1.29v6.63h-1.1v-6.63h1.1Z"/>
      <path class="cls-1" d="m156.72,113.65c-.4-.17-.72-.41-.96-.73-.23-.31-.36-.67-.39-1.07h1.14c.03.33.19.6.47.81s.64.31,1.09.31c.42,0,.75-.09.99-.28.24-.19.36-.42.36-.7s-.13-.51-.39-.65c-.26-.14-.66-.28-1.2-.42-.49-.13-.89-.26-1.2-.39-.31-.13-.58-.33-.8-.59-.22-.26-.33-.61-.33-1.03,0-.34.1-.65.3-.93.2-.28.49-.51.86-.67.37-.16.79-.25,1.27-.25.73,0,1.33.19,1.78.56s.69.88.73,1.52h-1.1c-.02-.35-.16-.62-.42-.83s-.59-.31-1.02-.31c-.39,0-.71.08-.94.25-.23.17-.35.39-.35.67,0,.22.07.4.21.54.14.14.32.25.53.34s.51.18.89.28c.48.13.86.26,1.16.38s.55.31.77.56.32.58.33.98c0,.36-.1.69-.3.98-.2.29-.49.52-.85.68-.37.16-.79.25-1.26.25-.51,0-.96-.09-1.37-.26Z"/>
      <path class="cls-1" d="m168.07,110.9h-5.3c.04.65.26,1.16.67,1.53.41.37.9.55,1.48.55.48,0,.87-.11,1.19-.33.32-.22.54-.52.67-.89h1.18c-.18.64-.53,1.16-1.06,1.55-.53.4-1.19.6-1.98.6-.63,0-1.19-.14-1.69-.42-.5-.28-.89-.68-1.17-1.2-.28-.52-.42-1.12-.42-1.81s.14-1.29.41-1.8c.27-.52.66-.91,1.16-1.19.5-.28,1.07-.42,1.71-.42s1.18.14,1.67.41c.48.27.86.65,1.12,1.13.26.48.39,1.02.39,1.63,0,.21-.01.43-.04.67Zm-1.38-1.98c-.19-.3-.44-.53-.76-.69-.32-.16-.67-.24-1.06-.24-.56,0-1.03.18-1.42.53-.39.36-.62.85-.67,1.48h4.18c0-.42-.09-.78-.28-1.08Z"/>
      <path class="cls-1" d="m174.74,107.78c.5.49.75,1.19.75,2.11v3.91h-1.09v-3.75c0-.66-.17-1.17-.5-1.52-.33-.35-.78-.53-1.36-.53s-1.04.18-1.38.54-.51.89-.51,1.58v3.66h-1.1v-6.63h1.1v.94c.22-.34.51-.6.89-.79s.79-.28,1.24-.28c.81,0,1.46.24,1.96.73Zm-3.6-2.27c.21-.22.48-.33.8-.33.15,0,.28.03.39.08.11.05.24.13.39.22.11.08.21.14.3.19s.19.07.29.07c.14,0,.25-.04.35-.13s.16-.22.18-.39h.63c-.05.4-.18.71-.4.93s-.49.33-.81.33c-.15,0-.29-.03-.41-.08s-.25-.13-.39-.24c-.13-.08-.23-.14-.31-.18s-.17-.06-.27-.06c-.14,0-.25.04-.34.13-.09.09-.15.22-.18.4h-.64c.06-.41.19-.73.41-.94Z"/>
      <path class="cls-1" d="m178.5,113.49c-.5-.28-.9-.68-1.18-1.2-.29-.52-.43-1.12-.43-1.81s.15-1.28.44-1.8.7-.92,1.2-1.2c.51-.28,1.08-.42,1.7-.42s1.2.14,1.71.42c.51.28.91.68,1.2,1.19s.44,1.12.44,1.8-.15,1.29-.45,1.81c-.3.52-.71.92-1.23,1.2-.52.28-1.09.42-1.72.42s-1.18-.14-1.69-.42Zm2.8-.82c.35-.19.63-.46.84-.83s.32-.82.32-1.35-.1-.98-.31-1.35c-.21-.37-.48-.65-.82-.83-.34-.18-.71-.27-1.1-.27s-.77.09-1.11.27c-.33.18-.6.46-.8.83-.2.37-.3.82-.3,1.35s.1,1,.3,1.37c.2.37.46.65.79.83s.69.27,1.09.27.77-.09,1.11-.28Z"/>
      <path class="cls-1" d="m193.97,107.17l-3.99,9.75h-1.14l1.31-3.19-2.67-6.55h1.22l2.08,5.37,2.06-5.37h1.14Z"/>
      <path class="cls-1" d="m198.3,108.68c.27-.51.65-.91,1.13-1.19s1.02-.42,1.62-.42c.52,0,1,.12,1.44.36.44.24.78.55,1.02.94v-3.51h1.11v8.95h-1.11v-1.25c-.22.4-.54.72-.97.97-.43.25-.93.38-1.5.38s-1.12-.15-1.6-.44-.86-.7-1.13-1.22c-.27-.52-.41-1.12-.41-1.79s.14-1.27.41-1.78Zm4.9.49c-.2-.37-.47-.66-.82-.85-.34-.2-.72-.3-1.13-.3s-.79.1-1.12.29c-.34.19-.61.48-.81.85-.2.37-.3.81-.3,1.31s.1.95.3,1.32c.2.37.47.66.81.86.34.2.71.3,1.12.3s.79-.1,1.13-.3c.34-.2.62-.48.82-.86.2-.37.3-.81.3-1.31s-.1-.94-.3-1.31Z"/>
      <path class="cls-1" d="m212.49,110.9h-5.3c.04.65.26,1.16.67,1.53.41.37.9.55,1.48.55.48,0,.87-.11,1.19-.33.32-.22.54-.52.67-.89h1.18c-.18.64-.53,1.16-1.06,1.55-.53.4-1.19.6-1.98.6-.63,0-1.19-.14-1.69-.42-.5-.28-.88-.68-1.17-1.2-.28-.52-.42-1.12-.42-1.81s.14-1.29.41-1.8c.27-.52.66-.91,1.16-1.19.5-.28,1.07-.42,1.71-.42s1.19.14,1.67.41c.48.27.86.65,1.12,1.13.26.48.39,1.02.39,1.63,0,.21-.01.43-.04.67Zm-1.38-1.98c-.19-.3-.44-.53-.76-.69-.32-.16-.67-.24-1.06-.24-.56,0-1.03.18-1.42.53-.39.36-.61.85-.67,1.48h4.18c0-.42-.09-.78-.28-1.08Z"/>
      <path class="cls-1" d="m214.96,113.65c-.4-.17-.72-.41-.96-.73-.23-.31-.36-.67-.39-1.07h1.14c.03.33.19.6.47.81.28.21.64.31,1.09.31.42,0,.75-.09.99-.28.24-.19.36-.42.36-.7s-.13-.51-.39-.65c-.26-.14-.66-.28-1.2-.42-.49-.13-.89-.26-1.2-.39-.31-.13-.58-.33-.8-.59-.22-.26-.33-.61-.33-1.03,0-.34.1-.65.3-.93.2-.28.49-.51.86-.67.37-.16.79-.25,1.27-.25.73,0,1.33.19,1.78.56s.69.88.73,1.52h-1.1c-.02-.35-.16-.62-.42-.83s-.59-.31-1.02-.31c-.4,0-.71.08-.94.25-.23.17-.35.39-.35.67,0,.22.07.4.21.54.14.14.32.25.53.34.21.08.51.18.89.28.48.13.86.26,1.16.38s.56.31.77.56.32.58.33.98c0,.36-.1.69-.3.98-.2.29-.49.52-.85.68-.37.16-.79.25-1.26.25-.51,0-.96-.09-1.37-.26Z"/>
      <path class="cls-1" d="m220.29,108.68c.27-.51.65-.91,1.13-1.19s1.01-.42,1.6-.42,1.08.12,1.51.37.75.56.96.94v-1.21h1.11v6.63h-1.11v-1.23c-.22.39-.54.71-.97.96-.43.25-.93.38-1.51.38s-1.12-.15-1.6-.44-.85-.7-1.12-1.22c-.27-.52-.41-1.12-.41-1.79s.14-1.27.41-1.78Zm4.9.49c-.2-.37-.47-.66-.82-.85-.34-.2-.72-.3-1.13-.3s-.79.1-1.12.29c-.34.19-.61.48-.81.85-.2.37-.3.81-.3,1.31s.1.95.3,1.32c.2.37.47.66.81.86.34.2.71.3,1.12.3s.79-.1,1.13-.3c.34-.2.62-.48.82-.86.2-.37.3-.81.3-1.31s-.1-.94-.3-1.31Z"/>
      <path class="cls-1" d="m230.39,107.37c.36-.21.8-.31,1.31-.31v1.14h-.29c-1.23,0-1.85.67-1.85,2.01v3.6h-1.1v-6.63h1.1v1.08c.19-.38.47-.67.83-.88Z"/>
      <path class="cls-1" d="m234.9,107.37c.36-.21.8-.31,1.31-.31v1.14h-.29c-1.23,0-1.85.67-1.85,2.01v3.6h-1.1v-6.63h1.1v1.08c.19-.38.47-.67.83-.88Z"/>
      <path class="cls-1" d="m238.69,113.49c-.5-.28-.9-.68-1.18-1.2-.29-.52-.43-1.12-.43-1.81s.15-1.28.44-1.8.69-.92,1.2-1.2c.51-.28,1.08-.42,1.7-.42s1.2.14,1.71.42c.51.28.91.68,1.2,1.19s.44,1.12.44,1.8-.15,1.29-.45,1.81c-.3.52-.71.92-1.23,1.2-.52.28-1.09.42-1.72.42s-1.18-.14-1.69-.42Zm2.8-.82c.35-.19.63-.46.84-.83.21-.37.32-.82.32-1.35s-.1-.98-.31-1.35c-.21-.37-.48-.65-.82-.83-.34-.18-.71-.27-1.1-.27s-.77.09-1.11.27c-.34.18-.6.46-.81.83-.2.37-.3.82-.3,1.35s.1,1,.3,1.37c.2.37.46.65.79.83s.69.27,1.09.27.77-.09,1.11-.28Z"/>
      <path class="cls-1" d="m246.33,104.85v8.95h-1.1v-8.95h1.1Z"/>
      <path class="cls-1" d="m249.3,104.85v8.95h-1.1v-8.95h1.1Z"/>
      <path class="cls-1" d="m252.38,113.49c-.5-.28-.9-.68-1.18-1.2-.29-.52-.43-1.12-.43-1.81s.15-1.28.44-1.8.69-.92,1.2-1.2c.51-.28,1.08-.42,1.7-.42s1.2.14,1.71.42c.51.28.91.68,1.2,1.19s.44,1.12.44,1.8-.15,1.29-.45,1.81c-.3.52-.71.92-1.23,1.2-.52.28-1.09.42-1.72.42s-1.18-.14-1.69-.42Zm2.8-.82c.35-.19.63-.46.84-.83.21-.37.32-.82.32-1.35s-.1-.98-.31-1.35c-.21-.37-.48-.65-.82-.83-.34-.18-.71-.27-1.1-.27s-.77.09-1.11.27c-.34.18-.6.46-.81.83-.2.37-.3.82-.3,1.35s.1,1,.3,1.37c.2.37.46.65.79.83s.69.27,1.09.27.77-.09,1.11-.28Z"/>
    </g>
  </g>
</svg>